<?xml version="1.0" encoding="UTF-8"?>
<svg version="1.1" xmlns="http://www.w3.org/2000/svg" width="1246" height="649">
<path d="M0 0 C214.5 0 429 0 650 0 C650 35.97 650 71.94 650 109 C435.5 109 221 109 0 109 C0 73.03 0 37.06 0 0 Z " fill="#009CDE" transform="translate(489,108)"/>
<path d="M0 0 C131.59550562 0 131.59550562 0 150 13 C150.89460937 13.62519531 151.78921875 14.25039063 152.7109375 14.89453125 C166.94705517 25.64140439 175.06927173 40.75860557 178.375 58.125 C181.05965774 80.09536234 179.92311995 103.3070329 166.4375 121.625 C157.92844478 132.45470665 148.03995567 139.52267345 135 144 C134.34 144 133.68 144 133 144 C133.54527344 144.90878906 134.09054687 145.81757813 134.65234375 146.75390625 C135.01215332 147.35364258 135.37196289 147.95337891 135.74267578 148.57128906 C136.54945107 149.91580465 137.35642201 151.26020285 138.16357422 152.60449219 C140.23204023 156.05006846 142.29778072 159.49719344 144.35546875 162.94921875 C148.27141645 169.51123542 152.23343775 176.02633372 156.39453125 182.4375 C157.95468414 184.92767104 159.41561932 187.46219908 160.86401367 190.01855469 C163.10159016 193.92144976 165.43254401 197.76919781 167.75 201.625 C168.54289429 202.94624878 168.54289429 202.94624878 169.35180664 204.29418945 C172.34810761 209.27921399 175.37331493 214.24394809 178.4375 219.1875 C183.01190145 226.62329482 183.01190145 226.62329482 185.0625 230.125 C185.66771484 231.14980469 185.66771484 231.14980469 186.28515625 232.1953125 C187 234 187 234 186 237 C178.29477614 237.13612737 170.59239757 237.18615618 162.88598633 237.17700195 C160.26606794 237.18396767 157.64612443 237.21047534 155.02661133 237.25708008 C151.254254 237.32077573 147.48756772 237.31363085 143.71484375 237.29296875 C142.54791489 237.32786911 141.38098602 237.36276947 140.17869568 237.39872742 C136.78355381 237.33953087 134.19186495 237.1710328 131 236 C127.88510298 232.67447392 125.96292445 229.08387601 124 225 C123.33871094 223.9790625 122.67742187 222.958125 121.99609375 221.90625 C118.61148673 216.68089179 115.5335291 211.37484374 112.59765625 205.88671875 C109.60011596 200.47062518 106.26647772 195.25647617 103 190 C100.14007506 185.31829618 97.3222888 180.6250224 94.6875 175.8125 C91.94259723 170.80867724 88.98719815 165.93457926 86.03393555 161.05200195 C83.09187297 156.18374594 83.09187297 156.18374594 82 154 C72.1 153.505 72.1 153.505 62 153 C61.97709487 146.75198914 61.95716661 140.50412285 61.94506836 134.25610352 C61.94002702 132.12881986 61.93319409 130.00153969 61.92456055 127.87426758 C61.91248621 124.82372174 61.90676986 121.77322155 61.90234375 118.72265625 C61.89718246 117.76537125 61.89202118 116.80808624 61.88670349 115.8217926 C61.88662796 114.94095505 61.88655243 114.06011749 61.88647461 113.15258789 C61.884254 112.37315323 61.88203339 111.59371857 61.87974548 110.79066467 C62 109 62 109 63 108 C66.10615962 107.91368057 69.19445566 107.88740474 72.30078125 107.89453125 C74.24805783 107.88105704 76.19532417 107.86603064 78.14257812 107.84960938 C81.21235204 107.82692451 84.28098512 107.81237085 87.35083008 107.82495117 C105.29803651 108.00117668 105.29803651 108.00117668 120.70849609 99.52685547 C127.72327345 91.94037249 128.30045362 82.33540143 128.21875 72.58203125 C127.66931713 63.58506808 124.6361698 56.90888254 118.5 50.3125 C101.20834379 38.88765572 59.36069914 44.1918648 49 44 C49 107.36 49 170.72 49 236 C32.83 236 16.66 236 0 236 C0 158.12 0 80.24 0 0 Z " fill="#63666A" transform="translate(489,302)"/>
<path d="M0 0 C0.33 14.52 0.66 29.04 1 44 C-9.0919715 42.87866983 -9.0919715 42.87866983 -13.35546875 41.9140625 C-14.29551758 41.70676514 -15.23556641 41.49946777 -16.20410156 41.28588867 C-17.18862305 41.06779541 -18.17314453 40.84970215 -19.1875 40.625 C-35.67672166 37.13008442 -51.67427422 34.75588516 -68.5625 34.5625 C-69.70364258 34.54018311 -70.84478516 34.51786621 -72.02050781 34.49487305 C-80.29166381 34.51712027 -87.23918028 36.23152794 -95 39 C-96.08998291 39.33459229 -97.17996582 39.66918457 -98.30297852 40.01391602 C-101.09133032 40.72268437 -101.09133032 40.72268437 -102.1875 42.875 C-102.455625 43.57625 -102.72375 44.2775 -103 45 C-103.7425 45.89332031 -103.7425 45.89332031 -104.5 46.8046875 C-107.52262213 51.22842093 -107.30165083 57.15788362 -106.75 62.35546875 C-105.83325354 66.71819966 -104.32810206 69.11564488 -101 72 C-101 72.66 -101 73.32 -101 74 C-99.89398437 74.42345703 -99.89398437 74.42345703 -98.765625 74.85546875 C-96.30478997 75.87386517 -94.07729919 77.0274625 -91.75 78.3125 C-82.44233473 83.00070363 -72.04005486 85.22448052 -61.99536133 87.82348633 C-19.91627538 98.72356884 -19.91627538 98.72356884 -5 112 C-4.37996094 112.49113281 -3.75992188 112.98226562 -3.12109375 113.48828125 C6.66734314 121.33171556 14.12472 133.53519417 16 146 C16.30436786 150.77380824 16.32466866 155.53021582 16.3125 160.3125 C16.32861328 161.56740234 16.34472656 162.82230469 16.36132812 164.11523438 C16.37020842 181.15652198 10.6483113 194.80849979 0 208 C-0.50917969 208.63679687 -1.01835938 209.27359375 -1.54296875 209.9296875 C-15.12064942 225.07805102 -38.45471704 231.51000085 -58 233 C-59.19109375 233.10828125 -60.3821875 233.2165625 -61.609375 233.328125 C-74.32519444 234.38314932 -86.90305113 233.98669551 -99.625 233.1875 C-100.3303186 233.1433194 -101.03563721 233.09913879 -101.7623291 233.05361938 C-112.64875398 232.35530949 -123.3348786 231.36185083 -134 229 C-135.31605225 228.71503662 -135.31605225 228.71503662 -136.65869141 228.42431641 C-139.46579565 227.80573623 -142.26482931 227.15986065 -145.0625 226.5 C-145.93938477 226.29850342 -146.81626953 226.09700684 -147.71972656 225.8894043 C-148.92773926 225.58836792 -148.92773926 225.58836792 -150.16015625 225.28125 C-150.87824463 225.10658203 -151.59633301 224.93191406 -152.33618164 224.75195312 C-153.15977173 224.37973633 -153.15977173 224.37973633 -154 224 C-154.91861784 221.24414648 -155.12204322 219.6403931 -155.11352539 216.80395508 C-155.11344986 215.96331009 -155.11337433 215.1226651 -155.11329651 214.25654602 C-155.10813522 213.35333115 -155.10297394 212.45011627 -155.09765625 211.51953125 C-155.0962413 210.59154221 -155.09482635 209.66355316 -155.09336853 208.70744324 C-155.08776937 205.74242942 -155.07521704 202.77749101 -155.0625 199.8125 C-155.05748489 197.80273547 -155.052922 195.79296975 -155.04882812 193.78320312 C-155.03780021 188.85543968 -155.02053617 183.92773263 -155 179 C-150.87076354 179.53478501 -146.95869105 180.19940899 -142.97265625 181.3984375 C-136.20945407 183.29975787 -129.36032517 184.46462992 -122.4375 185.625 C-121.18775391 185.8415625 -119.93800781 186.058125 -118.65039062 186.28125 C-106.75057062 188.30728346 -95.32571355 189.20150316 -83.25 189.25 C-81.9815625 189.270625 -80.713125 189.29125 -79.40625 189.3125 C-67.24824957 189.36212449 -51.98845644 188.45088287 -42.5625 179.75 C-42.046875 179.1725 -41.53125 178.595 -41 178 C-40.34 178 -39.68 178 -39 178 C-35.99451575 169.10877577 -34.65697335 162.27279221 -38.58203125 153.41796875 C-45.26039117 142.02980129 -62.06796559 138.21158118 -74.02734375 135.03955078 C-76.39119337 134.43334725 -78.75763766 133.83841866 -81.125 133.24609375 C-107.58405106 126.59380802 -135.78102934 118.0237954 -151.50390625 93.91015625 C-160.17383582 77.04567185 -163.57370278 56.11353558 -157.984375 37.7109375 C-152.93835556 23.81436015 -152.93835556 23.81436015 -148 18 C-147.53335938 17.40574219 -147.06671875 16.81148438 -146.5859375 16.19921875 C-145.43517883 14.76262648 -144.21888345 13.37926285 -143 12 C-142.34 12 -141.68 12 -141 12 C-140.78214844 11.41863281 -140.56429687 10.83726562 -140.33984375 10.23828125 C-134.60298305 0.65454603 -117.14702135 -4.2399794 -107 -7 C-71.79744928 -15.15373016 -34.26907241 -9.31415814 0 0 Z " fill="#63656A" transform="translate(849,308)"/>
<path d="M0 0 C68.31 0 136.62 0 207 0 C207 35.97 207 71.94 207 109 C138.69 109 70.38 109 0 109 C0 73.03 0 37.06 0 0 Z " fill="#3F9C34" transform="translate(236,108)"/>
<path d="M0 0 C21.12 0 42.24 0 64 0 C64 77.88 64 155.76 64 236 C47.83 236 31.66 236 15 236 C14.67 189.47 14.34 142.94 14 95 C10.15350115 104.61624714 6.53678987 114.05086719 3.375 123.875 C1.15629334 130.76385146 -1.09622397 137.48840532 -4.13818359 144.06005859 C-5.34034168 146.76610622 -6.18150483 149.53219089 -7 152.375 C-8.44871309 157.23574006 -10.04187326 161.98936296 -11.80859375 166.7421875 C-13.3804226 171.04023754 -14.87366545 175.36441913 -16.375 179.6875 C-18.73400548 186.46438211 -21.17442966 193.20081392 -23.72558594 199.9074707 C-26.09452463 206.17037205 -28.29301343 212.49055545 -30.46484375 218.82421875 C-32.47419016 224.64275268 -34.70674461 230.26686152 -37 236 C-52.51 236.33 -68.02 236.66 -84 237 C-83.35088173 233.75440863 -82.73696206 230.96752029 -81.6953125 227.890625 C-81.44136719 227.13523437 -81.18742188 226.37984375 -80.92578125 225.6015625 C-80.66152344 224.82554687 -80.39726563 224.04953125 -80.125 223.25 C-79.86847656 222.48945312 -79.61195313 221.72890625 -79.34765625 220.9453125 C-78.82750841 219.40316563 -78.30568569 217.8615827 -77.78222656 216.32055664 C-77.26133658 214.77528221 -76.74763715 213.22756505 -76.24121094 211.67749023 C-74.67296269 206.8812473 -72.92771784 202.22617154 -71 197.5625 C-68.98681053 192.62192797 -67.21793725 187.69625492 -65.765625 182.5625 C-64.28920837 177.62102395 -62.45668698 172.79946236 -60.70019531 167.95214844 C-59.97233302 165.9228643 -59.26135601 163.88831925 -58.5546875 161.8515625 C-56.12314351 154.85467062 -53.61474744 147.92040188 -50.8125 141.0625 C-48.8637304 136.28992746 -47.17334697 131.53007711 -45.765625 126.5703125 C-43.29973522 118.29196825 -40.13061347 110.24399159 -36.875 102.25 C-34.93590605 97.48162735 -33.23709594 92.73085095 -31.8359375 87.77734375 C-28.49029858 76.66169294 -24.19982601 65.81231804 -20 55 C-16.6797695 46.4071111 -13.56555017 37.8342147 -10.921875 29.00390625 C-7.88664609 19.11369 -3.84013426 9.60033565 0 0 Z " fill="#636569" transform="translate(1075,302)"/>
<path d="M0 0 C21.45 0 42.9 0 65 0 C68.50634255 8.18146595 71.81035829 16.03745892 74.7265625 24.38671875 C76.06104132 28.17320005 77.45682659 31.93182076 78.875 35.6875 C80.47562876 39.92826699 82.06763545 44.17137324 83.62109375 48.4296875 C86.84670728 57.269073 90.17499108 66.05796857 93.625 74.8125 C96.45733957 82.00255678 99.20481567 89.19930243 101.76171875 96.4921875 C108.8581479 116.89402413 108.8581479 116.89402413 116.83789062 136.95166016 C119.44696412 143.22535153 119.95069769 148.07714302 117.79296875 154.7109375 C117.27048285 155.9377654 116.73494941 157.15910635 116.1875 158.375 C114.07410239 163.34304783 112.23266288 168.25415018 110.76171875 173.44921875 C109.50255025 177.66581889 107.96491697 181.78070217 106.46875 185.91796875 C104.69423122 190.82887511 102.97303534 195.75834392 101.25 200.6875 C100.94416992 201.56132324 100.63833984 202.43514648 100.32324219 203.33544922 C99.19870483 206.55192897 98.07753151 209.76740547 97 213 C96.01 213 95.02 213 94 213 C93.28897358 211.07007114 92.57795081 209.14014093 91.86694336 207.21020508 C91.23891105 205.50559308 90.61081701 203.80100382 89.98266602 202.09643555 C88.38286472 197.75491267 86.78387949 193.41309485 85.1875 189.0703125 C82.38869951 181.45847625 79.58342823 173.84902384 76.75 166.25 C76.29109375 165.01765625 75.8321875 163.7853125 75.359375 162.515625 C74.41816376 160.081458 73.45133135 157.69235055 72.4140625 155.30078125 C71.36283665 152.84695295 70.42754297 150.47541186 69.625 147.9375 C64.48668288 132.17644437 58.54489485 116.65600509 52.296875 101.3046875 C51.09481565 98.24160855 50.0405479 95.12164371 49 92 C48.67 139.52 48.34 187.04 48 236 C32.16 236 16.32 236 0 236 C0 158.12 0 80.24 0 0 Z " fill="#63666A" transform="translate(889,302)"/>
<path d="M0 0 C27.39 0 54.78 0 83 0 C83 35.97 83 71.94 83 109 C55.61 109 28.22 109 0 109 C0 73.03 0 37.06 0 0 Z " fill="#888B8D" transform="translate(108,108)"/>
</svg>
